<mxfile host="app.diagrams.net" modified="2023-08-17T07:22:14.102Z" agent="Mozilla/5.0 (Windows NT 10.0; Win64; x64) AppleWebKit/537.36 (KHTML, like Gecko) Chrome/115.0.0.0 Safari/537.36" etag="DGVQ170bYM_e9XEP8Lei" version="21.1.1" type="device">
  <diagram name="Page-1" id="b520641d-4fe3-3701-9064-5fc419738815">
    <mxGraphModel dx="1914" dy="2150" grid="1" gridSize="11" guides="1" tooltips="1" connect="1" arrows="1" fold="1" page="1" pageScale="1" pageWidth="1654" pageHeight="1169" background="none" math="0" shadow="0">
      <root>
        <mxCell id="0" />
        <mxCell id="1" parent="0" />
        <mxCell id="byzspxksrCd8A4GHxwi9-51" value="" style="rounded=0;whiteSpace=wrap;html=1;fillColor=#E0E0DE;" vertex="1" parent="1">
          <mxGeometry x="242" y="-327" width="1265" height="877" as="geometry" />
        </mxCell>
        <mxCell id="byzspxksrCd8A4GHxwi9-53" value="" style="rounded=0;whiteSpace=wrap;html=1;" vertex="1" parent="1">
          <mxGeometry x="275" y="-209" width="1199" height="726" as="geometry" />
        </mxCell>
        <mxCell id="byzspxksrCd8A4GHxwi9-52" value="" style="rounded=0;whiteSpace=wrap;html=1;" vertex="1" parent="1">
          <mxGeometry x="308" y="-172" width="1133" height="535" as="geometry" />
        </mxCell>
        <mxCell id="byzspxksrCd8A4GHxwi9-50" value="" style="rounded=0;whiteSpace=wrap;html=1;" vertex="1" parent="1">
          <mxGeometry x="352" y="-44" width="913" height="374" as="geometry" />
        </mxCell>
        <mxCell id="byzspxksrCd8A4GHxwi9-5" value="User EOA" style="ellipse;whiteSpace=wrap;html=1;aspect=fixed;" vertex="1" parent="1">
          <mxGeometry x="1096" y="-154" width="80" height="80" as="geometry" />
        </mxCell>
        <mxCell id="byzspxksrCd8A4GHxwi9-6" style="edgeStyle=none;html=1;labelBackgroundColor=none;startFill=0;startSize=8;endFill=1;endSize=8;fontFamily=Verdana;fontSize=12;exitX=0.5;exitY=1;exitDx=0;exitDy=0;" edge="1" parent="1" source="byzspxksrCd8A4GHxwi9-5">
          <mxGeometry relative="1" as="geometry">
            <mxPoint x="1135.4099999999999" y="36" as="sourcePoint" />
            <mxPoint x="1135" y="-22" as="targetPoint" />
          </mxGeometry>
        </mxCell>
        <mxCell id="byzspxksrCd8A4GHxwi9-7" value="AutomatedVaultERC4626" style="swimlane;html=1;fontStyle=0;childLayout=stackLayout;horizontal=1;startSize=26;fillColor=#e0e0e0;horizontalStack=0;resizeParent=1;resizeLast=0;collapsible=1;marginBottom=0;swimlaneFillColor=#ffffff;align=center;rounded=1;shadow=0;comic=0;labelBackgroundColor=none;strokeWidth=1;fontFamily=Verdana;fontSize=12" vertex="1" parent="1">
          <mxGeometry x="1056" y="176" width="160" height="110" as="geometry" />
        </mxCell>
        <mxCell id="byzspxksrCd8A4GHxwi9-13" style="edgeStyle=none;html=1;labelBackgroundColor=none;startFill=0;startSize=8;endFill=1;endSize=8;fontFamily=Verdana;fontSize=12;exitX=0.5;exitY=1;exitDx=0;exitDy=0;entryX=0.5;entryY=0;entryDx=0;entryDy=0;" edge="1" parent="1" target="byzspxksrCd8A4GHxwi9-7">
          <mxGeometry relative="1" as="geometry">
            <mxPoint x="1136.41" y="88" as="sourcePoint" />
            <mxPoint x="1135.41" y="140" as="targetPoint" />
          </mxGeometry>
        </mxCell>
        <mxCell id="byzspxksrCd8A4GHxwi9-14" value="AutomatedVaultFactory" style="swimlane;html=1;fontStyle=0;childLayout=stackLayout;horizontal=1;startSize=26;fillColor=#e0e0e0;horizontalStack=0;resizeParent=1;resizeLast=0;collapsible=1;marginBottom=0;swimlaneFillColor=#ffffff;align=center;rounded=1;shadow=0;comic=0;labelBackgroundColor=none;strokeWidth=1;fontFamily=Verdana;fontSize=12" vertex="1" parent="1">
          <mxGeometry x="1056" y="-22" width="160" height="110" as="geometry" />
        </mxCell>
        <mxCell id="byzspxksrCd8A4GHxwi9-15" value="&lt;font style=&quot;font-size: 12px;&quot;&gt;1&lt;/font&gt;" style="text;html=1;strokeColor=none;fillColor=none;spacingLeft=4;spacingRight=4;whiteSpace=wrap;overflow=hidden;rotatable=0;points=[[0,0.5],[1,0.5]];portConstraint=eastwest;fontSize=12;" vertex="1" parent="1">
          <mxGeometry x="1133" y="88" width="22" height="22" as="geometry" />
        </mxCell>
        <mxCell id="byzspxksrCd8A4GHxwi9-16" value="&lt;font style=&quot;font-size: 13px;&quot;&gt;n&lt;/font&gt;" style="text;html=1;strokeColor=none;fillColor=none;spacingLeft=4;spacingRight=4;whiteSpace=wrap;overflow=hidden;rotatable=0;points=[[0,0.5],[1,0.5]];portConstraint=eastwest;fontSize=13;" vertex="1" parent="1">
          <mxGeometry x="1133" y="143" width="22" height="22" as="geometry" />
        </mxCell>
        <mxCell id="byzspxksrCd8A4GHxwi9-18" value="User EOA" style="ellipse;whiteSpace=wrap;html=1;aspect=fixed;" vertex="1" parent="1">
          <mxGeometry x="1298" y="191" width="80" height="80" as="geometry" />
        </mxCell>
        <mxCell id="byzspxksrCd8A4GHxwi9-20" value="" style="endArrow=classic;startArrow=classic;html=1;rounded=0;exitX=1;exitY=0.5;exitDx=0;exitDy=0;entryX=0;entryY=0.5;entryDx=0;entryDy=0;" edge="1" parent="1" source="byzspxksrCd8A4GHxwi9-7" target="byzspxksrCd8A4GHxwi9-18">
          <mxGeometry width="50" height="50" relative="1" as="geometry">
            <mxPoint x="946" y="116" as="sourcePoint" />
            <mxPoint x="996" y="66" as="targetPoint" />
          </mxGeometry>
        </mxCell>
        <mxCell id="byzspxksrCd8A4GHxwi9-22" value="StrategyWorker" style="swimlane;html=1;fontStyle=0;childLayout=stackLayout;horizontal=1;startSize=26;fillColor=#e0e0e0;horizontalStack=0;resizeParent=1;resizeLast=0;collapsible=1;marginBottom=0;swimlaneFillColor=#ffffff;align=center;rounded=1;shadow=0;comic=0;labelBackgroundColor=none;strokeWidth=1;fontFamily=Verdana;fontSize=12" vertex="1" parent="1">
          <mxGeometry x="759" y="176" width="160" height="110" as="geometry" />
        </mxCell>
        <mxCell id="byzspxksrCd8A4GHxwi9-26" value="Controller" style="swimlane;html=1;fontStyle=0;childLayout=stackLayout;horizontal=1;startSize=26;fillColor=#e0e0e0;horizontalStack=0;resizeParent=1;resizeLast=0;collapsible=1;marginBottom=0;swimlaneFillColor=#ffffff;align=center;rounded=1;shadow=0;comic=0;labelBackgroundColor=none;strokeWidth=1;fontFamily=Verdana;fontSize=12" vertex="1" parent="1">
          <mxGeometry x="759" y="-22" width="160" height="110" as="geometry" />
        </mxCell>
        <mxCell id="byzspxksrCd8A4GHxwi9-30" value="ExternalDexRouter" style="swimlane;html=1;fontStyle=0;childLayout=stackLayout;horizontal=1;startSize=26;fillColor=#e0e0e0;horizontalStack=0;resizeParent=1;resizeLast=0;collapsible=1;marginBottom=0;swimlaneFillColor=#ffffff;align=center;rounded=1;shadow=0;comic=0;labelBackgroundColor=none;strokeWidth=1;fontFamily=Verdana;fontSize=12" vertex="1" parent="1">
          <mxGeometry x="484" y="385" width="160" height="110" as="geometry" />
        </mxCell>
        <mxCell id="byzspxksrCd8A4GHxwi9-34" value="TreasuryVault" style="swimlane;html=1;fontStyle=0;childLayout=stackLayout;horizontal=1;startSize=26;fillColor=#e0e0e0;horizontalStack=0;resizeParent=1;resizeLast=0;collapsible=1;marginBottom=0;swimlaneFillColor=#ffffff;align=center;rounded=1;shadow=0;comic=0;labelBackgroundColor=none;strokeWidth=1;fontFamily=Verdana;fontSize=12" vertex="1" parent="1">
          <mxGeometry x="484" y="176" width="160" height="110" as="geometry" />
        </mxCell>
        <mxCell id="byzspxksrCd8A4GHxwi9-38" value="" style="endArrow=classic;startArrow=classic;html=1;rounded=0;exitX=1;exitY=0.5;exitDx=0;exitDy=0;entryX=0;entryY=0.5;entryDx=0;entryDy=0;" edge="1" parent="1" source="byzspxksrCd8A4GHxwi9-22" target="byzspxksrCd8A4GHxwi9-7">
          <mxGeometry width="50" height="50" relative="1" as="geometry">
            <mxPoint x="935" y="193" as="sourcePoint" />
            <mxPoint x="985" y="143" as="targetPoint" />
          </mxGeometry>
        </mxCell>
        <mxCell id="byzspxksrCd8A4GHxwi9-43" value="Protocol EOA" style="ellipse;whiteSpace=wrap;html=1;aspect=fixed;" vertex="1" parent="1">
          <mxGeometry x="799.5" y="-154" width="79" height="80" as="geometry" />
        </mxCell>
        <mxCell id="byzspxksrCd8A4GHxwi9-44" style="edgeStyle=none;html=1;labelBackgroundColor=none;startFill=0;startSize=8;endFill=1;endSize=8;fontFamily=Verdana;fontSize=12;exitX=0.5;exitY=1;exitDx=0;exitDy=0;" edge="1" parent="1" source="byzspxksrCd8A4GHxwi9-43">
          <mxGeometry relative="1" as="geometry">
            <mxPoint x="838.9099999999999" y="36" as="sourcePoint" />
            <mxPoint x="838.5" y="-22" as="targetPoint" />
          </mxGeometry>
        </mxCell>
        <mxCell id="byzspxksrCd8A4GHxwi9-45" value="" style="endArrow=classic;html=1;rounded=0;entryX=0.5;entryY=0;entryDx=0;entryDy=0;exitX=0.5;exitY=1;exitDx=0;exitDy=0;" edge="1" parent="1" source="byzspxksrCd8A4GHxwi9-26" target="byzspxksrCd8A4GHxwi9-22">
          <mxGeometry width="50" height="50" relative="1" as="geometry">
            <mxPoint x="825" y="88" as="sourcePoint" />
            <mxPoint x="985" y="110" as="targetPoint" />
          </mxGeometry>
        </mxCell>
        <mxCell id="byzspxksrCd8A4GHxwi9-46" value="" style="endArrow=classic;html=1;rounded=0;exitX=0;exitY=0.5;exitDx=0;exitDy=0;" edge="1" parent="1" source="byzspxksrCd8A4GHxwi9-22">
          <mxGeometry width="50" height="50" relative="1" as="geometry">
            <mxPoint x="935" y="160" as="sourcePoint" />
            <mxPoint x="649" y="231" as="targetPoint" />
          </mxGeometry>
        </mxCell>
        <mxCell id="byzspxksrCd8A4GHxwi9-47" value="" style="endArrow=classic;startArrow=classic;html=1;rounded=0;exitX=0.5;exitY=1;exitDx=0;exitDy=0;dashed=1;entryX=0.5;entryY=0;entryDx=0;entryDy=0;" edge="1" parent="1" source="byzspxksrCd8A4GHxwi9-34" target="byzspxksrCd8A4GHxwi9-30">
          <mxGeometry width="50" height="50" relative="1" as="geometry">
            <mxPoint x="935" y="160" as="sourcePoint" />
            <mxPoint x="564" y="374" as="targetPoint" />
          </mxGeometry>
        </mxCell>
        <mxCell id="byzspxksrCd8A4GHxwi9-48" value="ActionTriggerBot" style="label;whiteSpace=wrap;html=1;image=img/clipart/Gear_128x128.png" vertex="1" parent="1">
          <mxGeometry x="745" y="-297" width="188" height="60" as="geometry" />
        </mxCell>
        <mxCell id="byzspxksrCd8A4GHxwi9-49" value="" style="endArrow=classic;html=1;rounded=0;exitX=0.5;exitY=1;exitDx=0;exitDy=0;entryX=0.5;entryY=0;entryDx=0;entryDy=0;" edge="1" parent="1" source="byzspxksrCd8A4GHxwi9-48" target="byzspxksrCd8A4GHxwi9-43">
          <mxGeometry width="50" height="50" relative="1" as="geometry">
            <mxPoint x="935" y="28" as="sourcePoint" />
            <mxPoint x="985" y="-22" as="targetPoint" />
          </mxGeometry>
        </mxCell>
        <mxCell id="byzspxksrCd8A4GHxwi9-54" value="&lt;font style=&quot;font-size: 15px;&quot;&gt;Off-Chain&lt;/font&gt;" style="text;html=1;strokeColor=none;fillColor=none;spacingLeft=4;spacingRight=4;whiteSpace=wrap;overflow=hidden;rotatable=0;points=[[0,0.5],[1,0.5]];portConstraint=eastwest;fontSize=15;fontStyle=1" vertex="1" parent="1">
          <mxGeometry x="264" y="-319" width="121" height="33" as="geometry" />
        </mxCell>
        <mxCell id="byzspxksrCd8A4GHxwi9-55" value="&lt;font style=&quot;font-size: 15px;&quot;&gt;External Protocol Contracts&lt;/font&gt;" style="text;html=1;strokeColor=none;fillColor=none;spacingLeft=4;spacingRight=4;whiteSpace=wrap;overflow=hidden;rotatable=0;points=[[0,0.5],[1,0.5]];portConstraint=eastwest;fontSize=15;fontStyle=1" vertex="1" parent="1">
          <mxGeometry x="286" y="-205" width="231" height="33" as="geometry" />
        </mxCell>
        <mxCell id="byzspxksrCd8A4GHxwi9-56" value="&lt;font style=&quot;font-size: 15px;&quot;&gt;EOA Interactions&lt;/font&gt;" style="text;html=1;strokeColor=none;fillColor=none;spacingLeft=4;spacingRight=4;whiteSpace=wrap;overflow=hidden;rotatable=0;points=[[0,0.5],[1,0.5]];portConstraint=eastwest;fontSize=15;fontStyle=1" vertex="1" parent="1">
          <mxGeometry x="319" y="-165" width="231" height="33" as="geometry" />
        </mxCell>
        <mxCell id="byzspxksrCd8A4GHxwi9-57" value="&lt;font style=&quot;font-size: 15px;&quot;&gt;Protocol Contracts&lt;/font&gt;" style="text;html=1;strokeColor=none;fillColor=none;spacingLeft=4;spacingRight=4;whiteSpace=wrap;overflow=hidden;rotatable=0;points=[[0,0.5],[1,0.5]];portConstraint=eastwest;fontSize=15;fontStyle=1" vertex="1" parent="1">
          <mxGeometry x="363" y="-33" width="231" height="33" as="geometry" />
        </mxCell>
      </root>
    </mxGraphModel>
  </diagram>
</mxfile>
